#!OML:ASF X:\für Bonn\!DataBase\2005_08_10_Bjorn_Final\c3d\bjorn.ASF
:FULLY-SPECIFIED
:DEGREES
176
root -19.2716 19.1399 0.0299308 1121.42 265.273 -39.736
lowerback -4.75703 4.22772 -3.75902
upperback 6.74523 6.2868 -6.16751
thorax 10.2029 2.93035 -3.69278
lowerneck -0.336006 -8.32762 5.90532
upperneck 9.48299 -12.2946 7.28797
head 3.27356 -5.77193 1.00853
rclavicle 1.31198e-014 6.36111e-014
rhumerus 16.7502 -6.84435 -36.5891
rradius 97.2828
rwrist -33.8052
rhand -11.4686 8.73822
rfingers 7.12502
rthumb 14.569 -20.7301
lclavicle 1.31198e-014 6.36111e-014
lhumerus -24.5081 -4.9379 81.7101
lradius 32.9198
lwrist -14.5965
lhand -24.5757 -7.10217
lfingers 7.12502
lthumb 1.92131 22.8689
rfemur -24.1751 8.15115 8.48518
rtibia 29.0711
rfoot 4.35144 25.8943
rtoes 8.71212
lfemur 2.59271 -20.8231 -17.2077
ltibia 17.6995
lfoot -3.34113 -27.8895
ltoes 16.7559
177
root -19.1951 19.1288 0.0820153 1114.27 264.519 -32.5418
lowerback -4.72731 4.15155 -3.98061
upperback 6.81351 6.19589 -6.1445
thorax 10.2301 2.86354 -3.56026
lowerneck -0.310391 -8.28061 6.00439
upperneck 9.32918 -12.2112 7.23582
head 3.20322 -5.73818 0.983156
rclavicle -3.81667e-014 7.95139e-015
rhumerus 15.2882 -4.38467 -36.0565
rradius 98.7301
rwrist -33.2113
rhand -10.849 8.20558
rfingers 7.12502
rthumb 15.1659 -21.2187
lclavicle -3.81667e-014 7.95139e-015
lhumerus -24.4614 -5.06498 81.7168
lradius 32.9741
lwrist -14.5309
lhand -24.8256 -7.05375
lfingers 7.12502
lthumb 1.68004 22.9194
rfemur -24.6947 8.65269 8.39478
rtibia 28.94
rfoot 4.91357 26.0544
rtoes 8.14325
lfemur 2.68421 -20.3294 -17.2915
ltibia 17.2976
lfoot -4.09675 -27.729
ltoes 15.9179
178
root -19.1175 19.1163 0.135273 1108.99 263.683 -27.2507
lowerback -4.66507 4.07114 -4.23041
upperback 6.90393 6.09909 -6.12697
thorax 10.2611 2.79097 -3.42106
lowerneck -0.337196 -8.23134 6.08692
upperneck 9.20157 -12.1393 7.23982
head 3.15773 -5.70677 0.974713
rclavicle 5.40694e-014 -7.95139e-015
rhumerus 13.8873 -1.79801 -35.7378
rradius 100.057
rwrist -32.505
rhand -10.0093 7.87047
rfingers 7.12502
rthumb 15.9747 -21.4908
lclavicle 5.40694e-014 -7.95139e-015
lhumerus -24.3397 -5.08121 81.6863
lradius 32.9136
lwrist -14.6316
lhand -25.0853 -6.9943
lfingers 7.12502
lthumb 1.42917 22.9807
rfemur -25.1635 9.1389 8.28703
rtibia 28.7666
rfoot 5.50171 26.2698
rtoes 7.56196
lfemur 2.78948 -19.7751 -17.4123
ltibia 16.9479
lfoot -4.7032 -27.4269
ltoes 15.6148
179
root -19.0382 19.1033 0.18898 1104.97 262.825 -23.2926
lowerback -4.55525 3.97919 -4.48674
upperback 7.03581 5.98395 -6.11856
thorax 10.3114 2.70779 -3.29366
lowerneck -0.430368 -8.1731 6.25391
upperneck 9.09653 -12.0651 7.22215
head 3.12535 -5.66982 0.9426
rclavicle 8.62725e-014 -8.42847e-014
rhumerus 12.6192 0.938585 -35.6473
rradius 101.135
rwrist -31.6085
rhand -9.01542 7.64739
rfingers 7.12502
rthumb 16.9316 -21.6346
lclavicle 8.62725e-014 -8.42847e-014
lhumerus -24.1479 -5.02259 81.621
lradius 32.7598
lwrist -14.8334
lhand -25.4849 -6.94216
lfingers 7.12502
lthumb 1.04324 23.035
rfemur -25.5423 9.58107 8.20135
rtibia 28.5487
rfoot 5.96808 26.5234
rtoes 6.60211
lfemur 2.93691 -19.2282 -17.556
ltibia 16.656
lfoot -5.35333 -27.0144
ltoes 15.3271
180
root -18.9582 19.0913 0.243362 1101.73 261.921 -20.1178
lowerback -4.44109 3.88575 -4.77606
upperback 7.16734 5.86756 -6.09983
thorax 10.3554 2.6204 -3.13728
lowerneck -0.439064 -8.12281 6.44631
upperneck 8.95262 -11.9878 7.18042
head 3.06081 -5.63567 0.903951
rclavicle 1.98785e-015 3.49861e-014
rhumerus 11.3684 3.865 -35.6567
rradius 102.004
rwrist -30.5304
rhand -7.96781 7.47003
rfingers 7.12502
rthumb 17.9398 -21.7226
lclavicle 1.98785e-015 3.49861e-014
lhumerus -23.9434 -4.86149 81.5387
lradius 32.5135
lwrist -15.1561
lhand -25.6929 -7.05646
lfingers 7.12502
lthumb 0.842336 22.9216
rfemur -25.8909 10.0093 8.1235
rtibia 28.2909
rfoot 6.4483 26.7982
rtoes 5.61773
lfemur 3.08923 -18.7333 -17.7196
ltibia 16.4075
lfoot -5.94558 -26.4279
ltoes 15.2804
181
root -18.8749 19.0802 0.298891 1099.24 261.03 -17.6696
lowerback -4.3489 3.76241 -5.09631
upperback 7.3136 5.71511 -6.06776
thorax 10.4254 2.51122 -2.95297
lowerneck -0.48734 -8.06532 6.64359
upperneck 8.82025 -11.9055 7.13279
head 3.00708 -5.59749 0.860702
rclavicle 1.43125e-014 -8.42847e-014
rhumerus 10.247 6.96354 -35.8151
rradius 102.573
rwrist -29.5479
rhand -7.02609 7.39598
rfingers 7.12502
rthumb 18.8457 -21.7111
lclavicle 1.43125e-014 -8.42847e-014
lhumerus -23.6188 -4.53311 81.4462
lradius 32.0972
lwrist -15.6274
lhand -25.6685 -7.42775
lfingers 7.12502
lthumb 0.865916 22.5502
rfemur -26.2367 10.4046 8.02515
rtibia 27.978
rfoot 6.88658 27.0364
rtoes 4.59065
lfemur 3.1266 -18.2616 -17.8744
ltibia 16.2563
lfoot -6.54893 -25.7685
ltoes 15.1519
182
root -18.7909 19.073 0.354881 1097.26 260.098 -15.7254
lowerback -4.27162 3.64341 -5.47889
upperback 7.45314 5.5731 -6.01071
thorax 10.4907 2.4005 -2.70511
lowerneck -0.506693 -8.02559 6.74679
upperneck 8.72006 -11.8491 7.12236
head 2.96842 -5.57309 0.843871
rclavicle -3.57812e-015 6.04305e-014
rhumerus 9.1632 10.2747 -36.056
rradius 102.91
rwrist -28.8581
rhand -6.31536 7.44525
rfingers 7.12502
rthumb 19.5292 -21.5939
lclavicle -3.57812e-015 6.04305e-014
lhumerus -23.2998 -4.30634 81.4154
lradius 31.6125
lwrist -16.065
lhand -25.7035 -7.62038
lfingers 7.12502
lthumb 0.832104 22.3577
rfemur -26.5606 10.7408 7.92587
rtibia 27.6175
rfoot 7.16946 27.2906
rtoes 3.20055
lfemur 3.10627 -17.7707 -18.0545
ltibia 16.2199
lfoot -7.18943 -25.0566
ltoes 14.959
183
root -18.7045 19.0666 0.412061 1095.69 259.191 -14.1633
lowerback -4.19851 3.50794 -5.88616
upperback 7.58197 5.41004 -5.94017
thorax 10.5454 2.27693 -2.43155
lowerneck -0.508846 -8.00128 6.87564
upperneck 8.58505 -11.806 7.0916
head 2.91175 -5.55726 0.817956
rclavicle -1.70955e-014 -2.70347e-014
rhumerus 8.12886 13.6693 -36.4205
rradius 102.964
rwrist -28.3964
rhand -5.73571 7.59026
rfingers 7.12502
rthumb 20.0864 -21.3914
lclavicle -1.70955e-014 -2.70347e-014
lhumerus -22.9244 -4.12188 81.4189
lradius 31.015
lwrist -16.5704
lhand -25.751 -7.70079
lfingers 7.12502
lthumb 0.7862 22.2775
rfemur -26.8696 10.9892 7.83057
rtibia 27.2055
rfoot 7.42598 27.4825
rtoes 1.83924
lfemur 2.92774 -17.1875 -18.1948
ltibia 16.3425
lfoot -7.69475 -24.469
ltoes 15.0719
184
root -18.6178 19.0612 0.46939 1094.24 258.288 -12.7452
lowerback -4.10748 3.37068 -6.28477
upperback 7.73138 5.24145 -5.85493
thorax 10.6154 2.14939 -2.14879
lowerneck -0.551698 -7.98539 6.91035
upperneck 8.50933 -11.7909 7.13635
head 2.89473 -5.5521 0.826459
rclavicle -1.07344e-014 1.43125e-014
rhumerus 7.20009 17.042 -36.9634
rradius 102.646
rwrist -28.0443
rhand -4.97836 7.82694
rfingers 7.12502
rthumb 20.8142 -21.0766
lclavicle -1.07344e-014 1.43125e-014
lhumerus -22.4927 -3.92456 81.4323
lradius 30.3209
lwrist -17.143
lhand -25.7661 -7.69193
lfingers 7.12502
lthumb 0.771608 22.2864
rfemur -27.1055 11.2159 7.7749
rtibia 26.7626
rfoot 7.47369 27.6564
rtoes 0.12151
lfemur 2.69916 -16.5291 -18.3066
ltibia 16.6035
lfoot -8.20561 -23.9422
ltoes 15.0158
185
root -18.5289 19.0574 0.52795 1093.11 257.362 -11.6202
lowerback -4.02271 3.24184 -6.72404
upperback 7.8651 5.08644 -5.75758
thorax 10.6705 2.02456 -1.82856
lowerneck -0.61343 -7.99316 6.86922
upperneck 8.50972 -11.8225 7.23604
head 2.91659 -5.56672 0.860333
rclavicle -1.78906e-014 4.6118e-014
rhumerus 6.25223 20.3606 -37.654
rradius 102.011
rwrist -27.5944
rhand -4.20292 7.53595
rfingers 7.12502
rthumb 21.5591 -21.2841
lclavicle -1.78906e-014 4.6118e-014
lhumerus -22.096 -3.80747 81.5058
lradius 29.6522
lwrist -17.6977
lhand -25.7613 -7.48391
lfingers 7.12502
lthumb 0.776291 22.4944
rfemur -27.3549 11.2549 7.74227
rtibia 26.2928
rfoot 7.41502 27.9367
rtoes -1.79848
lfemur 2.33507 -15.8285 -18.4238
ltibia 17.0181
lfoot -8.85572 -23.4082
ltoes 14.5405
